<?xml version="1.0" encoding="utf-8" standalone="no"?><!DOCTYPE svg PUBLIC "-//W3C//DTD SVG 1.1//EN" "http://www.w3.org/Graphics/SVG/1.1/DTD/svg11.dtd"><svg width="666px" height="383px" version="1.1" xmlns="http://www.w3.org/2000/svg" xmlns:xlink="http://www.w3.org/1999/xlink"><desc /><defs><linearGradient id="fs1" x1="0.499999165534973px" y1="-0.500000417232513px" x2="1.49999856948853px" y2="0.499999016523361px"><stop offset="0%" stop-color="#FFFFFF" stop-opacity="1" /><stop offset="100%" stop-color="#EBEBEB" stop-opacity="1" /></linearGradient><linearGradient id="fs2" x1="0.999999701976776px" y1="-1.90734866123421E-07px" x2="0.999999582767487px" y2="0.999999701976776px"><stop offset="0%" stop-color="#FFFFFF" stop-opacity="0.5490196" /><stop offset="100%" stop-color="#FFFFFF" stop-opacity="0.1568628" /></linearGradient><linearGradient id="fs3" x1="0.499996900558472px" y1="-0.500002145767212px" x2="1.49999630451202px" y2="0.499996602535248px"><stop offset="0%" stop-color="#FFFFFF" stop-opacity="1" /><stop offset="100%" stop-color="#EBEBEB" stop-opacity="1" /></linearGradient><linearGradient id="fs4" x1="0.999996066093445px" y1="-7.26609005141654E-06px" x2="0.999995470046997px" y2="0.999992728233337px"><stop offset="0%" stop-color="#FFFFFF" stop-opacity="0.5490196" /><stop offset="100%" stop-color="#FFFFFF" stop-opacity="0.1568628" /></linearGradient><linearGradient id="fs5" x1="0.499998301267624px" y1="-0.500000834465027px" x2="1.49999797344208px" y2="0.499998301267624px"><stop offset="0%" stop-color="#FFFFFF" stop-opacity="1" /><stop offset="100%" stop-color="#EBEBEB" stop-opacity="1" /></linearGradient><linearGradient id="fs6" x1="0.999998867511749px" y1="-7.26609005141654E-06px" x2="0.999998867511749px" y2="0.999992728233337px"><stop offset="0%" stop-color="#FFFFFF" stop-opacity="0.5490196" /><stop offset="100%" stop-color="#FFFFFF" stop-opacity="0.1568628" /></linearGradient><linearGradient id="fs7" x1="0.999920666217804px" y1="-3.05175785797474E-06px" x2="0.999918639659882px" y2="0.999996960163116px"><stop offset="0%" stop-color="#FFFFFF" stop-opacity="1" /><stop offset="100%" stop-color="#EBEBEB" stop-opacity="1" /></linearGradient><linearGradient id="fs8" x1="0.999924719333649px" y1="-6.93581341693061E-06px" x2="0.999922692775726px" y2="0.999993085861206px"><stop offset="0%" stop-color="#FFFFFF" stop-opacity="0.5490196" /><stop offset="100%" stop-color="#FFFFFF" stop-opacity="0.1568628" /></linearGradient><linearGradient id="fs9" x1="0.999963402748108px" y1="-2.28881845032447E-06px" x2="0.999961316585541px" y2="0.999997735023499px"><stop offset="0%" stop-color="#FFFFFF" stop-opacity="1" /><stop offset="100%" stop-color="#EBEBEB" stop-opacity="1" /></linearGradient><linearGradient id="fs10" x1="0.99996542930603px" y1="-4.16148805015837E-06px" x2="0.999963402748108px" y2="0.999995827674866px"><stop offset="0%" stop-color="#FFFFFF" stop-opacity="0.5490196" /><stop offset="100%" stop-color="#FFFFFF" stop-opacity="0.1568628" /></linearGradient><clipPath id="cp1"><path d="M 221 5 L 437 5  437 143  221 143 z " /></clipPath><clipPath id="cp2" clip-rule="evenodd"><path d="M -30000 -30000 L 30000 -30000  30000 30000  -30000 30000 z M 221 5 L 437 5  437 143  221 143 z " /></clipPath><clipPath id="cp3"><path d="M 219 3 L 437 3  437 143  219 143 z " /></clipPath><clipPath id="cp4"><path d="M 354 296.5 L 570 296.5  570 368.5  354 368.5 z " /></clipPath><clipPath id="cp5" clip-rule="evenodd"><path d="M -30000 -30000 L 30000 -30000  30000 30000  -30000 30000 z M 354 296.5 L 570 296.5  570 368.5  354 368.5 z " /></clipPath><clipPath id="cp6"><path d="M 352 295 L 570 295  570 369  352 369 z " /></clipPath><clipPath id="cp7"><path d="M 88 296.5 L 304 296.5  304 368.5  88 368.5 z " /></clipPath><clipPath id="cp8" clip-rule="evenodd"><path d="M -30000 -30000 L 30000 -30000  30000 30000  -30000 30000 z M 88 296.5 L 304 296.5  304 368.5  88 368.5 z " /></clipPath><clipPath id="cp9"><path d="M 86 295 L 304 295  304 369  86 369 z " /></clipPath><clipPath id="cp10"><path d="M 350 142 L 354 162  365 155 z " /></clipPath><clipPath id="cp11"><path d="M 300 142 L 285 156  296 162 z " /></clipPath></defs><g clip-path="url(#)" transform="matrix(1 0 0 1 0 0)" /><g clip-path="url(#cp1)" transform="matrix(1 0 0 1 0 0)"><rect x="220px" y="4px" width="218px" height="140px" fill="rgba(0,0,0,0.196)" /></g><g clip-path="url(#)" transform="matrix(1 0 0 1 0 0)" /><g clip-path="url(#cp2)" transform="matrix(1 0 0 1 0 0)"><path fill="none" d="M 221 5 L 437 5  437 143  221 143 z " stroke="rgba(0,0,0,0.051)" stroke-width="8px" stroke-dashoffset="0" stroke-linejoin="round" stroke-miterlimit="10" /><path fill="none" d="M 221 5 L 437 5  437 143  221 143 z " stroke="rgba(0,0,0,0.051)" stroke-width="6px" stroke-dashoffset="0" stroke-linejoin="round" stroke-miterlimit="10" /><path fill="none" d="M 221 5 L 437 5  437 143  221 143 z " stroke="rgba(0,0,0,0.051)" stroke-width="4px" stroke-dashoffset="0" stroke-linejoin="round" stroke-miterlimit="10" /><path fill="none" d="M 221 5 L 437 5  437 143  221 143 z " stroke="rgba(0,0,0,0.051)" stroke-width="2px" stroke-dashoffset="0" stroke-linejoin="round" stroke-miterlimit="10" /></g><g clip-path="url(#)" transform="matrix(1 0 0 1 0 0)"><rect x="220px" y="4px" width="216px" height="138px" fill="url(#fs1)" /><path d="M 436 50 C 328 50  220 50  220 84.5 L 220 4  436 4  436 50 z " fill="url(#fs2)" /><rect x="220px" y="4px" width="216px" height="138px" fill="none" stroke="#000000" stroke-width="1px" stroke-dashoffset="0" stroke-linejoin="round" stroke-miterlimit="10" /></g><g clip-path="url(#cp3)" transform="matrix(1 0 0 1 0 0)"><text x="221px" y="24.4453086853027px" font-family="Verdana" font-size="9.599999pt" font-weight="bold" fill="#000000">CaffeineBevrage</text><line x1="220px" y1="28px" x2="436px" y2="28px" stroke="#000000" stroke-width="1px" stroke-dashoffset="0" stroke-linejoin="round" stroke-miterlimit="10" /><line x1="220px" y1="38px" x2="436px" y2="38px" stroke="#000000" stroke-width="1px" stroke-dashoffset="0" stroke-linejoin="round" stroke-miterlimit="10" /><text x="221px" y="57.5007781982422px" font-family="Verdana" font-size="8.639999pt" fill="#000000">+ prepareRecipe ()</text><text x="221px" y="74.5007781982422px" font-family="Verdana" font-size="8.639999pt" fill="#000000">+ boilWater ()</text><text x="221px" y="91.5007781982422px" font-family="Verdana" font-size="8.639999pt" fill="#000000">+ brew ()</text><text x="221px" y="108.500778198242px" font-family="Verdana" font-size="8.639999pt" fill="#000000">+ addCondiments ()</text><text x="221px" y="125.500778198242px" font-family="Verdana" font-size="8.639999pt" fill="#000000">+ pourInCup ()</text></g><g clip-path="url(#)" transform="matrix(1 0 0 1 0 0)" /><g clip-path="url(#)" transform="matrix(1 0 0 1 0 0)" /><g clip-path="url(#)" transform="matrix(1 0 0 1 0 0)" /><g clip-path="url(#cp4)" transform="matrix(1 0 0 1 0 0)"><rect x="353px" y="296px" width="218px" height="74px" fill="rgba(0,0,0,0.196)" /></g><g clip-path="url(#)" transform="matrix(1 0 0 1 0 0)" /><g clip-path="url(#cp5)" transform="matrix(1 0 0 1 0 0)"><path fill="none" d="M 354 296.5 L 570 296.5  570 368.5  354 368.5 z " stroke="rgba(0,0,0,0.051)" stroke-width="8px" stroke-dashoffset="0" stroke-linejoin="round" stroke-miterlimit="10" /><path fill="none" d="M 354 296.5 L 570 296.5  570 368.5  354 368.5 z " stroke="rgba(0,0,0,0.051)" stroke-width="6px" stroke-dashoffset="0" stroke-linejoin="round" stroke-miterlimit="10" /><path fill="none" d="M 354 296.5 L 570 296.5  570 368.5  354 368.5 z " stroke="rgba(0,0,0,0.051)" stroke-width="4px" stroke-dashoffset="0" stroke-linejoin="round" stroke-miterlimit="10" /><path fill="none" d="M 354 296.5 L 570 296.5  570 368.5  354 368.5 z " stroke="rgba(0,0,0,0.051)" stroke-width="2px" stroke-dashoffset="0" stroke-linejoin="round" stroke-miterlimit="10" /></g><g clip-path="url(#)" transform="matrix(1 0 0 1 0 0)"><rect x="353px" y="296px" width="216px" height="72px" fill="url(#fs3)" /><path d="M 569 319.5 C 461 319.5  353 319.5  353 337.5 L 353 295.5  569 295.5  569 319.5 z " fill="url(#fs4)" /><rect x="353px" y="296px" width="216px" height="72px" fill="none" stroke="#000000" stroke-width="1px" stroke-dashoffset="0" stroke-linejoin="round" stroke-miterlimit="10" /></g><g clip-path="url(#cp6)" transform="matrix(1 0 0 1 0 0)"><text x="354px" y="315.4453125px" font-family="Verdana" font-size="9.599999pt" font-weight="bold" fill="#000000">Tea</text><line x1="353px" y1="319px" x2="569px" y2="319px" stroke="#000000" stroke-width="1px" stroke-dashoffset="0" stroke-linejoin="round" stroke-miterlimit="10" /><line x1="353px" y1="329px" x2="569px" y2="329px" stroke="#000000" stroke-width="1px" stroke-dashoffset="0" stroke-linejoin="round" stroke-miterlimit="10" /><text x="354px" y="348.500793457031px" font-family="Verdana" font-size="8.639999pt" fill="#000000">+ brew ()</text><text x="354px" y="365.500793457031px" font-family="Verdana" font-size="8.639999pt" fill="#000000">+ addCondiments ()</text></g><g clip-path="url(#)" transform="matrix(1 0 0 1 0 0)" /><g clip-path="url(#)" transform="matrix(1 0 0 1 0 0)" /><g clip-path="url(#)" transform="matrix(1 0 0 1 0 0)" /><g clip-path="url(#cp7)" transform="matrix(1 0 0 1 0 0)"><rect x="87px" y="296px" width="218px" height="74px" fill="rgba(0,0,0,0.196)" /></g><g clip-path="url(#)" transform="matrix(1 0 0 1 0 0)" /><g clip-path="url(#cp8)" transform="matrix(1 0 0 1 0 0)"><path fill="none" d="M 88 296.5 L 304 296.5  304 368.5  88 368.5 z " stroke="rgba(0,0,0,0.051)" stroke-width="8px" stroke-dashoffset="0" stroke-linejoin="round" stroke-miterlimit="10" /><path fill="none" d="M 88 296.5 L 304 296.5  304 368.5  88 368.5 z " stroke="rgba(0,0,0,0.051)" stroke-width="6px" stroke-dashoffset="0" stroke-linejoin="round" stroke-miterlimit="10" /><path fill="none" d="M 88 296.5 L 304 296.5  304 368.5  88 368.5 z " stroke="rgba(0,0,0,0.051)" stroke-width="4px" stroke-dashoffset="0" stroke-linejoin="round" stroke-miterlimit="10" /><path fill="none" d="M 88 296.5 L 304 296.5  304 368.5  88 368.5 z " stroke="rgba(0,0,0,0.051)" stroke-width="2px" stroke-dashoffset="0" stroke-linejoin="round" stroke-miterlimit="10" /></g><g clip-path="url(#)" transform="matrix(1 0 0 1 0 0)"><rect x="87px" y="296px" width="216px" height="72px" fill="url(#fs5)" /><path d="M 303 319.5 C 195 319.5  87 319.5  87 337.5 L 87 295.5  303 295.5  303 319.5 z " fill="url(#fs6)" /><rect x="87px" y="296px" width="216px" height="72px" fill="none" stroke="#000000" stroke-width="1px" stroke-dashoffset="0" stroke-linejoin="round" stroke-miterlimit="10" /></g><g clip-path="url(#cp9)" transform="matrix(1 0 0 1 0 0)"><text x="88px" y="315.4453125px" font-family="Verdana" font-size="9.599999pt" font-weight="bold" fill="#000000">Coffee</text><line x1="87px" y1="319px" x2="303px" y2="319px" stroke="#000000" stroke-width="1px" stroke-dashoffset="0" stroke-linejoin="round" stroke-miterlimit="10" /><line x1="87px" y1="329px" x2="303px" y2="329px" stroke="#000000" stroke-width="1px" stroke-dashoffset="0" stroke-linejoin="round" stroke-miterlimit="10" /><text x="88px" y="348.500793457031px" font-family="Verdana" font-size="8.639999pt" fill="#000000">+ brew ()</text><text x="88px" y="365.500793457031px" font-family="Verdana" font-size="8.639999pt" fill="#000000">+ addCondiments ()</text></g><g clip-path="url(#)" transform="matrix(1 0 0 1 0 0)" /><g clip-path="url(#)" transform="matrix(1 0 0 1 0 0)" /><g clip-path="url(#)" transform="matrix(1 0 0 1 0 0)"><rect x="0px" y="98px" width="192px" height="29px" fill="rgba(255,255,255,0)" /><text x="16px" y="121.4453125px" font-family="Verdana" font-size="9.599999pt" fill="#AAAAAA">Concrete Operation</text></g><g clip-path="url(#)" transform="matrix(1 0 0 1 0 0)" /><g clip-path="url(#)" transform="matrix(1 0 0 1 0 0)"><rect x="464px" y="31px" width="192px" height="29px" fill="rgba(255,255,255,0)" /><text x="490px" y="54.4453086853027px" font-family="Verdana" font-size="9.599999pt" fill="#AAAAAA">Template Method</text></g><g clip-path="url(#)" transform="matrix(1 0 0 1 0 0)" /><g clip-path="url(#)" transform="matrix(1 0 0 1 0 0)"><rect x="0px" y="54px" width="192px" height="29px" fill="rgba(255,255,255,0)" /><text x="16px" y="78.4453125px" font-family="Verdana" font-size="9.599999pt" fill="#AAAAAA">Concrete Operation</text></g><g clip-path="url(#)" transform="matrix(1 0 0 1 0 0)" /><g clip-path="url(#)" transform="matrix(1 0 0 1 0 0)"><rect x="475px" y="112px" width="161px" height="29px" fill="rgba(255,255,255,0)" /><text x="516px" y="146.4453125px" font-family="Verdana" font-size="9.599999pt" fill="#AAAAAA">Operation</text></g><g clip-path="url(#)" transform="matrix(1 0 0 1 0 0)" /><g clip-path="url(#)" transform="matrix(1 0 0 1 0 0)"><rect x="460px" y="69px" width="192px" height="29px" fill="rgba(255,255,255,0)" /><text x="477px" y="92.4453125px" font-family="Verdana" font-size="9.599999pt" fill="#AAAAAA">Primitive Operation</text></g><g clip-path="url(#)" transform="matrix(1 0 0 1 0 0)" /><g clip-path="url(#)" transform="matrix(1 0 0 1 0 0)"><polyline points="440,296 350,142 " fill="none" stroke="#BFBFBF" stroke-width="1px" stroke-dashoffset="0" stroke-linejoin="round" stroke-miterlimit="10" /><polygon points="350,142 354,162 365,155 350,142 " fill="url(#fs7)" /></g><g clip-path="url(#cp10)" transform="matrix(1 0 0 1 0 0)"><path d="M 364.9334 148.5136 C 357.4667 148.5136  350 148.5136  350 153.3987 L 350 142  364.9334 142  364.9334 148.5136 z " fill="url(#fs8)" /></g><g clip-path="url(#)" transform="matrix(1 0 0 1 0 0)"><polygon fill="none" points="350,142 354,162 365,155 350,142 " stroke="#BFBFBF" stroke-width="1px" stroke-dashoffset="0" stroke-linejoin="round" stroke-miterlimit="10" /></g><g clip-path="url(#)" transform="matrix(1 0 0 1 0 0)" /><g clip-path="url(#)" transform="matrix(1 0 0 1 0 0)"><polyline points="215,296 300,142 " fill="none" stroke="#BFBFBF" stroke-width="1px" stroke-dashoffset="0" stroke-linejoin="round" stroke-miterlimit="10" /><polygon points="300,142 285,156 296,162 300,142 " fill="url(#fs9)" /></g><g clip-path="url(#cp11)" transform="matrix(1 0 0 1 0 0)"><path d="M 300 148.5465 C 292.6988 148.5465  285.3976 148.5465  285.3976 153.4563 L 285.3976 142  300 142  300 148.5465 z " fill="url(#fs10)" /></g><g clip-path="url(#)" transform="matrix(1 0 0 1 0 0)"><polygon fill="none" points="300,142 285,156 296,162 300,142 " stroke="#BFBFBF" stroke-width="1px" stroke-dashoffset="0" stroke-linejoin="round" stroke-miterlimit="10" /></g><g clip-path="url(#)" transform="matrix(1 0 0 1 0 0)" /><g clip-path="url(#)" transform="matrix(1 0 0 1 0 0)"><polyline points="220,116 170,116 170,116 170,116 220,116 " fill="none" stroke="#D4D4D4" stroke-width="1px" stroke-dasharray="3,3" stroke-dashoffset="0" stroke-linejoin="miter" stroke-miterlimit="10" /></g><g clip-path="url(#)" transform="matrix(1 0 0 1 0 0)" /><g clip-path="url(#)" transform="matrix(1 0 0 1 0 0)"><polyline points="220,66 170,66 170,66 220,66 " fill="none" stroke="#D4D4D4" stroke-width="1px" stroke-dasharray="3,3" stroke-dashoffset="0" stroke-linejoin="miter" stroke-miterlimit="10" /></g><g clip-path="url(#)" transform="matrix(1 0 0 1 0 0)" /><g clip-path="url(#)" transform="matrix(1 0 0 1 0 0)"><polyline points="436,48 486,48 486,48 436,48 " fill="none" stroke="#D4D4D4" stroke-width="1px" stroke-dasharray="3,3" stroke-dashoffset="0" stroke-linejoin="miter" stroke-miterlimit="10" /></g><g clip-path="url(#)" transform="matrix(1 0 0 1 0 0)" /><g clip-path="url(#)" transform="matrix(1 0 0 1 0 0)"><polyline points="436,83 486,83 486,83 436,83 " fill="none" stroke="#D4D4D4" stroke-width="1px" stroke-dasharray="3,3" stroke-dashoffset="0" stroke-linejoin="miter" stroke-miterlimit="10" /></g><g clip-path="url(#)" transform="matrix(1 0 0 1 0 0)" /><g clip-path="url(#)" transform="matrix(1 0 0 1 0 0)"><polyline points="475,127 436,100 " fill="none" stroke="#D4D4D4" stroke-width="1px" stroke-dasharray="3,3" stroke-dashoffset="0" stroke-linejoin="miter" stroke-miterlimit="10" /></g><g clip-path="url(#)" transform="matrix(1 0 0 1 0 0)" /></svg>