<svg xmlns="http://www.w3.org/2000/svg" xmlns:xlink="http://www.w3.org/1999/xlink" width="666" height="383" version="1.1"><desc/><defs><linearGradient id="fs1" x1=".5" x2="1.5" y1="-.5" y2=".5"><stop offset="0%" stop-color="#FFF" stop-opacity="1"/><stop offset="100%" stop-color="#EBEBEB" stop-opacity="1"/></linearGradient><linearGradient id="fs2" x1="1" x2="1" y1="0" y2="1"><stop offset="0%" stop-color="#FFF" stop-opacity=".549"/><stop offset="100%" stop-color="#FFF" stop-opacity=".157"/></linearGradient><linearGradient id="fs3" x1=".5" x2="1.5" y1="-.5" y2=".5"><stop offset="0%" stop-color="#FFF" stop-opacity="1"/><stop offset="100%" stop-color="#EBEBEB" stop-opacity="1"/></linearGradient><linearGradient id="fs4" x1="1" x2="1" y1="0" y2="1"><stop offset="0%" stop-color="#FFF" stop-opacity=".549"/><stop offset="100%" stop-color="#FFF" stop-opacity=".157"/></linearGradient><linearGradient id="fs5" x1=".5" x2="1.5" y1="-.5" y2=".5"><stop offset="0%" stop-color="#FFF" stop-opacity="1"/><stop offset="100%" stop-color="#EBEBEB" stop-opacity="1"/></linearGradient><linearGradient id="fs6" x1="1" x2="1" y1="0" y2="1"><stop offset="0%" stop-color="#FFF" stop-opacity=".549"/><stop offset="100%" stop-color="#FFF" stop-opacity=".157"/></linearGradient><linearGradient id="fs7" x1="1" x2="1" y1="0" y2="1"><stop offset="0%" stop-color="#FFF" stop-opacity="1"/><stop offset="100%" stop-color="#EBEBEB" stop-opacity="1"/></linearGradient><linearGradient id="fs8" x1="1" x2="1" y1="0" y2="1"><stop offset="0%" stop-color="#FFF" stop-opacity=".549"/><stop offset="100%" stop-color="#FFF" stop-opacity=".157"/></linearGradient><linearGradient id="fs9" x1="1" x2="1" y1="0" y2="1"><stop offset="0%" stop-color="#FFF" stop-opacity="1"/><stop offset="100%" stop-color="#EBEBEB" stop-opacity="1"/></linearGradient><linearGradient id="fs10" x1="1" x2="1" y1="0" y2="1"><stop offset="0%" stop-color="#FFF" stop-opacity=".549"/><stop offset="100%" stop-color="#FFF" stop-opacity=".157"/></linearGradient><clipPath id="cp1"><path d="M 221 5 L 437 5 437 143 221 143 z"/></clipPath><clipPath id="cp2" clip-rule="evenodd"><path d="M -30000 -30000 L 30000 -30000 30000 30000 -30000 30000 z M 221 5 L 437 5 437 143 221 143 z"/></clipPath><clipPath id="cp3"><path d="M 219 3 L 437 3 437 143 219 143 z"/></clipPath><clipPath id="cp4"><path d="M 354 296.5 L 570 296.5 570 368.5 354 368.5 z"/></clipPath><clipPath id="cp5" clip-rule="evenodd"><path d="M -30000 -30000 L 30000 -30000 30000 30000 -30000 30000 z M 354 296.5 L 570 296.5 570 368.5 354 368.5 z"/></clipPath><clipPath id="cp6"><path d="M 352 295 L 570 295 570 369 352 369 z"/></clipPath><clipPath id="cp7"><path d="M 88 296.5 L 304 296.5 304 368.5 88 368.5 z"/></clipPath><clipPath id="cp8" clip-rule="evenodd"><path d="M -30000 -30000 L 30000 -30000 30000 30000 -30000 30000 z M 88 296.5 L 304 296.5 304 368.5 88 368.5 z"/></clipPath><clipPath id="cp9"><path d="M 86 295 L 304 295 304 369 86 369 z"/></clipPath><clipPath id="cp10"><path d="M 350 142 L 354 162 365 155 z"/></clipPath><clipPath id="cp11"><path d="M 300 142 L 285 156 296 162 z"/></clipPath></defs><g clip-path="url(#cp1)" transform="matrix(1 0 0 1 0 0)"><rect width="218" height="140" x="220" y="4" fill="rgba(0,0,0,0.196)"/></g><g clip-path="url(#cp2)" transform="matrix(1 0 0 1 0 0)"><path fill="none" stroke="rgba(0,0,0,0.051)" stroke-dashoffset="0" stroke-linejoin="round" stroke-miterlimit="10" stroke-width="8" d="M 221 5 L 437 5 437 143 221 143 z"/><path fill="none" stroke="rgba(0,0,0,0.051)" stroke-dashoffset="0" stroke-linejoin="round" stroke-miterlimit="10" stroke-width="6" d="M 221 5 L 437 5 437 143 221 143 z"/><path fill="none" stroke="rgba(0,0,0,0.051)" stroke-dashoffset="0" stroke-linejoin="round" stroke-miterlimit="10" stroke-width="4" d="M 221 5 L 437 5 437 143 221 143 z"/><path fill="none" stroke="rgba(0,0,0,0.051)" stroke-dashoffset="0" stroke-linejoin="round" stroke-miterlimit="10" stroke-width="2" d="M 221 5 L 437 5 437 143 221 143 z"/></g><g clip-path="url(#)" transform="matrix(1 0 0 1 0 0)"><rect width="216" height="138" x="220" y="4" fill="url(#fs1)"/><path fill="url(#fs2)" d="M 436 50 C 328 50 220 50 220 84.5 L 220 4 436 4 436 50 z"/><rect width="216" height="138" x="220" y="4" fill="none" stroke="#000" stroke-dashoffset="0" stroke-linejoin="round" stroke-miterlimit="10" stroke-width="1"/></g><g clip-path="url(#cp3)" transform="matrix(1 0 0 1 0 0)"><text x="221" y="24.445" fill="#000" font-family="Verdana" font-size="12.8" font-weight="bold">CaffeineBevrage</text><line x1="220" x2="436" y1="28" y2="28" stroke="#000" stroke-dashoffset="0" stroke-linejoin="round" stroke-miterlimit="10" stroke-width="1"/><line x1="220" x2="436" y1="38" y2="38" stroke="#000" stroke-dashoffset="0" stroke-linejoin="round" stroke-miterlimit="10" stroke-width="1"/><text x="221" y="57.501" fill="#000" font-family="Verdana" font-size="11.52">+ prepareRecipe ()</text><text x="221" y="74.501" fill="#000" font-family="Verdana" font-size="11.52">+ boilWater ()</text><text x="221" y="91.501" fill="#000" font-family="Verdana" font-size="11.52">+ brew ()</text><text x="221" y="108.501" fill="#000" font-family="Verdana" font-size="11.52">+ addCondiments ()</text><text x="221" y="125.501" fill="#000" font-family="Verdana" font-size="11.52">+ pourInCup ()</text></g><g clip-path="url(#cp4)" transform="matrix(1 0 0 1 0 0)"><rect width="218" height="74" x="353" y="296" fill="rgba(0,0,0,0.196)"/></g><g clip-path="url(#cp5)" transform="matrix(1 0 0 1 0 0)"><path fill="none" stroke="rgba(0,0,0,0.051)" stroke-dashoffset="0" stroke-linejoin="round" stroke-miterlimit="10" stroke-width="8" d="M 354 296.5 L 570 296.5 570 368.5 354 368.5 z"/><path fill="none" stroke="rgba(0,0,0,0.051)" stroke-dashoffset="0" stroke-linejoin="round" stroke-miterlimit="10" stroke-width="6" d="M 354 296.5 L 570 296.5 570 368.5 354 368.5 z"/><path fill="none" stroke="rgba(0,0,0,0.051)" stroke-dashoffset="0" stroke-linejoin="round" stroke-miterlimit="10" stroke-width="4" d="M 354 296.5 L 570 296.5 570 368.5 354 368.5 z"/><path fill="none" stroke="rgba(0,0,0,0.051)" stroke-dashoffset="0" stroke-linejoin="round" stroke-miterlimit="10" stroke-width="2" d="M 354 296.5 L 570 296.5 570 368.5 354 368.5 z"/></g><g clip-path="url(#)" transform="matrix(1 0 0 1 0 0)"><rect width="216" height="72" x="353" y="296" fill="url(#fs3)"/><path fill="url(#fs4)" d="M 569 319.5 C 461 319.5 353 319.5 353 337.5 L 353 295.5 569 295.5 569 319.5 z"/><rect width="216" height="72" x="353" y="296" fill="none" stroke="#000" stroke-dashoffset="0" stroke-linejoin="round" stroke-miterlimit="10" stroke-width="1"/></g><g clip-path="url(#cp6)" transform="matrix(1 0 0 1 0 0)"><text x="354" y="315.445" fill="#000" font-family="Verdana" font-size="12.8" font-weight="bold">Tea</text><line x1="353" x2="569" y1="319" y2="319" stroke="#000" stroke-dashoffset="0" stroke-linejoin="round" stroke-miterlimit="10" stroke-width="1"/><line x1="353" x2="569" y1="329" y2="329" stroke="#000" stroke-dashoffset="0" stroke-linejoin="round" stroke-miterlimit="10" stroke-width="1"/><text x="354" y="348.501" fill="#000" font-family="Verdana" font-size="11.52">+ brew ()</text><text x="354" y="365.501" fill="#000" font-family="Verdana" font-size="11.52">+ addCondiments ()</text></g><g clip-path="url(#cp7)" transform="matrix(1 0 0 1 0 0)"><rect width="218" height="74" x="87" y="296" fill="rgba(0,0,0,0.196)"/></g><g clip-path="url(#cp8)" transform="matrix(1 0 0 1 0 0)"><path fill="none" stroke="rgba(0,0,0,0.051)" stroke-dashoffset="0" stroke-linejoin="round" stroke-miterlimit="10" stroke-width="8" d="M 88 296.5 L 304 296.5 304 368.5 88 368.5 z"/><path fill="none" stroke="rgba(0,0,0,0.051)" stroke-dashoffset="0" stroke-linejoin="round" stroke-miterlimit="10" stroke-width="6" d="M 88 296.5 L 304 296.5 304 368.5 88 368.5 z"/><path fill="none" stroke="rgba(0,0,0,0.051)" stroke-dashoffset="0" stroke-linejoin="round" stroke-miterlimit="10" stroke-width="4" d="M 88 296.5 L 304 296.5 304 368.5 88 368.5 z"/><path fill="none" stroke="rgba(0,0,0,0.051)" stroke-dashoffset="0" stroke-linejoin="round" stroke-miterlimit="10" stroke-width="2" d="M 88 296.5 L 304 296.5 304 368.5 88 368.5 z"/></g><g clip-path="url(#)" transform="matrix(1 0 0 1 0 0)"><rect width="216" height="72" x="87" y="296" fill="url(#fs5)"/><path fill="url(#fs6)" d="M 303 319.5 C 195 319.5 87 319.5 87 337.5 L 87 295.5 303 295.5 303 319.5 z"/><rect width="216" height="72" x="87" y="296" fill="none" stroke="#000" stroke-dashoffset="0" stroke-linejoin="round" stroke-miterlimit="10" stroke-width="1"/></g><g clip-path="url(#cp9)" transform="matrix(1 0 0 1 0 0)"><text x="88" y="315.445" fill="#000" font-family="Verdana" font-size="12.8" font-weight="bold">Coffee</text><line x1="87" x2="303" y1="319" y2="319" stroke="#000" stroke-dashoffset="0" stroke-linejoin="round" stroke-miterlimit="10" stroke-width="1"/><line x1="87" x2="303" y1="329" y2="329" stroke="#000" stroke-dashoffset="0" stroke-linejoin="round" stroke-miterlimit="10" stroke-width="1"/><text x="88" y="348.501" fill="#000" font-family="Verdana" font-size="11.52">+ brew ()</text><text x="88" y="365.501" fill="#000" font-family="Verdana" font-size="11.52">+ addCondiments ()</text></g><g clip-path="url(#)" transform="matrix(1 0 0 1 0 0)"><rect width="192" height="29" x="0" y="98" fill="rgba(255,255,255,0)"/><text x="16" y="121.445" fill="#AAA" font-family="Verdana" font-size="12.8">Concrete Operation</text></g><g clip-path="url(#)" transform="matrix(1 0 0 1 0 0)"><rect width="192" height="29" x="464" y="31" fill="rgba(255,255,255,0)"/><text x="490" y="54.445" fill="#AAA" font-family="Verdana" font-size="12.8">Template Method</text></g><g clip-path="url(#)" transform="matrix(1 0 0 1 0 0)"><rect width="192" height="29" x="0" y="54" fill="rgba(255,255,255,0)"/><text x="16" y="78.445" fill="#AAA" font-family="Verdana" font-size="12.8">Concrete Operation</text></g><g clip-path="url(#)" transform="matrix(1 0 0 1 0 0)"><rect width="161" height="29" x="475" y="112" fill="rgba(255,255,255,0)"/><text x="516" y="146.445" fill="#AAA" font-family="Verdana" font-size="12.8">Operation</text></g><g clip-path="url(#)" transform="matrix(1 0 0 1 0 0)"><rect width="192" height="29" x="460" y="69" fill="rgba(255,255,255,0)"/><text x="477" y="92.445" fill="#AAA" font-family="Verdana" font-size="12.8">Primitive Operation</text></g><g clip-path="url(#)" transform="matrix(1 0 0 1 0 0)"><polyline fill="none" stroke="#BFBFBF" stroke-dashoffset="0" stroke-linejoin="round" stroke-miterlimit="10" stroke-width="1" points="440 296 350 142"/><polygon fill="url(#fs7)" points="350 142 354 162 365 155 350 142"/></g><g clip-path="url(#cp10)" transform="matrix(1 0 0 1 0 0)"><path fill="url(#fs8)" d="M 364.9334 148.5136 C 357.4667 148.5136 350 148.5136 350 153.3987 L 350 142 364.9334 142 364.9334 148.5136 z"/></g><g clip-path="url(#)" transform="matrix(1 0 0 1 0 0)"><polygon fill="none" stroke="#BFBFBF" stroke-dashoffset="0" stroke-linejoin="round" stroke-miterlimit="10" stroke-width="1" points="350 142 354 162 365 155 350 142"/></g><g clip-path="url(#)" transform="matrix(1 0 0 1 0 0)"><polyline fill="none" stroke="#BFBFBF" stroke-dashoffset="0" stroke-linejoin="round" stroke-miterlimit="10" stroke-width="1" points="215 296 300 142"/><polygon fill="url(#fs9)" points="300 142 285 156 296 162 300 142"/></g><g clip-path="url(#cp11)" transform="matrix(1 0 0 1 0 0)"><path fill="url(#fs10)" d="M 300 148.5465 C 292.6988 148.5465 285.3976 148.5465 285.3976 153.4563 L 285.3976 142 300 142 300 148.5465 z"/></g><g clip-path="url(#)" transform="matrix(1 0 0 1 0 0)"><polygon fill="none" stroke="#BFBFBF" stroke-dashoffset="0" stroke-linejoin="round" stroke-miterlimit="10" stroke-width="1" points="300 142 285 156 296 162 300 142"/></g><g clip-path="url(#)" transform="matrix(1 0 0 1 0 0)"><polyline fill="none" stroke="#D4D4D4" stroke-dasharray="3 3" stroke-dashoffset="0" stroke-linejoin="miter" stroke-miterlimit="10" stroke-width="1" points="220 116 170 116 170 116 170 116 220 116"/></g><g clip-path="url(#)" transform="matrix(1 0 0 1 0 0)"><polyline fill="none" stroke="#D4D4D4" stroke-dasharray="3 3" stroke-dashoffset="0" stroke-linejoin="miter" stroke-miterlimit="10" stroke-width="1" points="220 66 170 66 170 66 220 66"/></g><g clip-path="url(#)" transform="matrix(1 0 0 1 0 0)"><polyline fill="none" stroke="#D4D4D4" stroke-dasharray="3 3" stroke-dashoffset="0" stroke-linejoin="miter" stroke-miterlimit="10" stroke-width="1" points="436 48 486 48 486 48 436 48"/></g><g clip-path="url(#)" transform="matrix(1 0 0 1 0 0)"><polyline fill="none" stroke="#D4D4D4" stroke-dasharray="3 3" stroke-dashoffset="0" stroke-linejoin="miter" stroke-miterlimit="10" stroke-width="1" points="436 83 486 83 486 83 436 83"/></g><g clip-path="url(#)" transform="matrix(1 0 0 1 0 0)"><polyline fill="none" stroke="#D4D4D4" stroke-dasharray="3 3" stroke-dashoffset="0" stroke-linejoin="miter" stroke-miterlimit="10" stroke-width="1" points="475 127 436 100"/></g></svg>